<svg width="26" height="21" viewBox="0 0 26 21" fill="none" xmlns="http://www.w3.org/2000/svg">
<path d="M18.2069 11.446H15.0922L10.5266 5.33563L10.0275 4.66752L11.5761 2.5719L12.082 3.2488L18.2069 11.446Z" fill="#007D8C"/>
<path d="M25.4339 9.55396V11.4886H22.1391L17.4602 17.7511L16.9544 18.428L15.4058 16.3324L15.9049 15.6643L20.4711 9.55396H25.4339Z" fill="#007D8C"/>
<path opacity="0.4" d="M12.082 3.2488L10.5266 5.33563L10.0275 4.66752L11.5761 2.5719L12.082 3.2488Z" fill="white"/>
<path d="M11.5761 2.57195L4.96282 11.446H0V9.51136H3.29483L10.0275 0.5L11.5761 2.57195Z" fill="#08D9D6"/>
<path opacity="0.4" d="M17.4602 17.7511L16.9544 18.428L15.4058 16.3324L15.9049 15.6643L17.4602 17.7511Z" fill="white"/>
<path d="M15.4057 20.5L16.9549 18.428L10.341 9.55396H7.2276L15.4057 20.5Z" fill="#08D9D6"/>
</svg>
